<?xml version="1.0" encoding="utf-8"?>
<!-- Generator: Adobe Illustrator 17.0.0, SVG Export Plug-In . SVG Version: 6.00 Build 0)  -->
<!DOCTYPE svg PUBLIC "-//W3C//DTD SVG 1.1//EN" "http://www.w3.org/Graphics/SVG/1.1/DTD/svg11.dtd">
<svg version="1.1" id="Layer_1" xmlns="http://www.w3.org/2000/svg" xmlns:xlink="http://www.w3.org/1999/xlink" x="0px" y="0px"
	 width="841.89px" height="595.276px" viewBox="0 0 841.89 595.276" enable-background="new 0 0 841.89 595.276"
	 xml:space="preserve">
<g id="Layer_x0020_1">
	<rect x="0" y="0" fill="none" width="841.89" height="595.276"/>
</g>
<g id="Layer_x0020_2">
	<path fill="#191919" d="M180.023,519.208c0-5.579-1.018-10.782-3.053-15.606c-2.036-4.826-4.92-9.01-8.652-12.554
		c-3.732-3.544-8.18-6.314-13.345-8.313c-5.165-1.997-10.838-2.997-17.02-2.997h-29.517v79.165h29.517
		c6.182,0,11.855-1.018,17.02-3.054c5.165-2.035,9.613-4.825,13.345-8.368c3.732-3.544,6.616-7.747,8.652-12.611
		C179.005,530.008,180.023,524.788,180.023,519.208L180.023,519.208z M733.453,558.904l-21.375-29.97
		c2.79-0.754,5.334-1.828,7.634-3.222c2.299-1.395,4.278-3.091,5.937-5.089c1.659-1.998,2.96-4.298,3.902-6.898
		c0.943-2.601,1.414-5.561,1.414-8.878c0-3.845-0.679-7.332-2.036-10.461c-1.356-3.129-3.299-5.767-5.823-7.916
		c-2.527-2.15-5.618-3.808-9.275-4.976c-3.657-1.169-7.747-1.754-12.27-1.754h-35.284v79.165h13.91v-27.595h17.416l19.452,27.595
		H733.453L733.453,558.904z M716.829,505.637c0,4.071-1.47,7.313-4.41,9.726c-2.941,2.413-6.899,3.62-11.875,3.62h-20.357v-26.577
		h20.244c5.203,0,9.236,1.112,12.101,3.337C715.397,497.966,716.829,501.264,716.829,505.637z M647.106,479.739H588.41v79.165
		h59.261v-12.441h-45.35v-21.261h39.695v-12.44h-39.695v-20.583h44.785V479.739z M552.276,534.475l-42.41-54.737h-12.892v79.165
		h13.684v-56.32l43.654,56.32h11.649v-79.165h-13.684V534.475z M460.839,534.475l-42.41-54.737h-12.892v79.165h13.684v-56.32
		l43.654,56.32h11.649v-79.165h-13.684V534.475z M368.383,479.739v79.165h13.911v-79.165H368.383z M347.402,547.934v-33.25h-33.701
		v12.101h20.244V541.6c-2.413,1.81-5.259,3.261-8.539,4.355c-3.28,1.093-6.804,1.639-10.574,1.639
		c-4.072,0-7.747-0.716-11.026-2.149c-3.28-1.432-6.107-3.411-8.483-5.937c-2.374-2.527-4.203-5.523-5.484-8.991
		c-1.282-3.468-1.923-7.238-1.923-11.31c0-3.845,0.66-7.464,1.979-10.857s3.129-6.371,5.428-8.935c2.3-2.563,5.014-4.58,8.143-6.05
		c3.129-1.47,6.503-2.205,10.122-2.205c2.489,0,4.769,0.207,6.842,0.622c2.074,0.414,3.978,0.98,5.711,1.697
		c1.735,0.716,3.393,1.602,4.976,2.657c1.583,1.056,3.129,2.225,4.637,3.506l8.821-10.518c-2.036-1.733-4.128-3.261-6.277-4.58
		c-2.149-1.32-4.43-2.432-6.842-3.336c-2.413-0.905-5.033-1.602-7.86-2.093c-2.827-0.49-5.976-0.735-9.444-0.735
		c-5.956,0-11.441,1.093-16.455,3.28c-5.014,2.187-9.331,5.145-12.949,8.878c-3.619,3.732-6.427,8.086-8.425,13.063
		c-1.998,4.976-2.997,10.253-2.997,15.833c0,5.805,0.98,11.195,2.941,16.172c1.96,4.976,4.73,9.293,8.312,12.949
		c3.58,3.657,7.898,6.522,12.949,8.595c5.051,2.074,10.668,3.11,16.851,3.11c3.468,0,6.785-0.32,9.952-0.961
		c3.166-0.641,6.125-1.526,8.878-2.657c2.752-1.131,5.315-2.45,7.69-3.958C343.274,551.176,345.443,549.593,347.402,547.934
		L347.402,547.934z M257.662,479.739h-58.694v79.165h59.26v-12.441h-45.35v-21.261h39.696v-12.44h-39.696v-20.583h44.785V479.739z
		 M165.434,519.435c0,3.92-0.66,7.52-1.979,10.799c-1.32,3.281-3.166,6.107-5.542,8.482c-2.375,2.375-5.259,4.222-8.652,5.542
		c-3.392,1.32-7.162,1.979-11.309,1.979h-15.606v-53.832h15.606c4.147,0,7.917,0.679,11.309,2.036
		c3.393,1.357,6.277,3.242,8.652,5.654c2.375,2.412,4.222,5.259,5.542,8.539C164.774,511.913,165.434,515.514,165.434,519.435z"/>
</g>
<g id="Layer_x0020_3">
	<path fill="#0061A5" d="M338.511,106.772c8.227,0,14.899,6.672,14.899,14.899c0,8.227-6.672,14.899-14.899,14.899
		s-14.899-6.673-14.899-14.899C323.611,113.444,330.284,106.772,338.511,106.772z M256.452,35.813
		c7.53,0,13.637,6.107,13.637,13.637s-6.107,13.637-13.637,13.637c-7.53,0-13.637-6.107-13.637-13.637
		S248.922,35.813,256.452,35.813z M275.788,79.178c16.136,0,29.222,13.086,29.222,29.221s-13.086,29.222-29.222,29.222
		s-29.221-13.086-29.221-29.222S259.652,79.178,275.788,79.178z M257.131,150.153c7.394,0,13.389,5.996,13.389,13.389
		c0,7.392-5.996,13.388-13.389,13.388c-7.392,0-13.388-5.996-13.388-13.388C243.743,156.149,249.739,150.153,257.131,150.153
		L257.131,150.153z M299.839,157.7c8.453,0,15.309,6.855,15.309,15.309c0,8.453-6.855,15.309-15.309,15.309
		c-8.453,0-15.308-6.855-15.308-15.309C284.531,164.555,291.386,157.7,299.839,157.7L299.839,157.7z M322.595,142.463
		c3.904,0,7.072,3.167,7.072,7.071c0,3.906-3.167,7.072-7.072,7.072c-3.904,0-7.072-3.166-7.072-7.072
		C315.523,145.629,318.69,142.463,322.595,142.463z M342.527,169.661c9.065,0,16.415,7.351,16.415,16.415
		c0,9.064-7.351,16.415-16.415,16.415c-9.063,0-16.415-7.351-16.415-16.415C326.113,177.012,333.464,169.661,342.527,169.661z
		 M269.977,187.903c3.904,0,7.071,3.166,7.071,7.071c0,3.904-3.166,7.072-7.071,7.072c-3.905,0-7.072-3.167-7.072-7.072
		C262.905,191.07,266.072,187.903,269.977,187.903z M291.92,199.027c3.904,0,7.072,3.166,7.072,7.071
		c0,3.905-3.167,7.072-7.072,7.072c-3.904,0-7.072-3.166-7.072-7.072C284.848,202.193,288.016,199.027,291.92,199.027z
		 M258.041,216.14c8.535,0,15.456,6.922,15.456,15.457c0,8.535-6.921,15.456-15.456,15.456c-8.535,0-15.457-6.921-15.457-15.456
		C242.585,223.062,249.507,216.14,258.041,216.14z M274.696,253.461c3.904,0,7.072,3.167,7.072,7.072
		c0,3.904-3.167,7.072-7.072,7.072c-3.904,0-7.072-3.167-7.072-7.072C267.624,256.628,270.791,253.461,274.696,253.461z
		 M246.853,266.241c3.904,0,7.072,3.166,7.072,7.072c0,3.904-3.167,7.071-7.072,7.071c-3.904,0-7.072-3.166-7.072-7.071
		C239.781,269.407,242.949,266.241,246.853,266.241z M286.61,279.731c3.904,0,7.071,3.166,7.071,7.072
		c0,3.904-3.166,7.071-7.071,7.071c-3.905,0-7.072-3.167-7.072-7.071C279.539,282.898,282.705,279.731,286.61,279.731z
		 M319.656,211.778c16.28,0,29.483,13.203,29.483,29.482c0,16.28-13.203,29.483-29.483,29.483
		c-16.279,0-29.482-13.203-29.482-29.483C290.174,224.98,303.377,211.778,319.656,211.778z M314.925,287.779
		c3.904,0,7.072,3.167,7.072,7.071c0,3.905-3.167,7.072-7.072,7.072c-3.904,0-7.072-3.167-7.072-7.072
		C307.853,290.945,311.021,287.779,314.925,287.779z M265.827,292.187c11.238,0,20.352,9.114,20.352,20.352
		c0,11.238-9.114,20.352-20.352,20.352s-20.352-9.114-20.352-20.352C245.475,301.3,254.589,292.187,265.827,292.187z
		 M303.141,318.736c3.904,0,7.071,3.166,7.071,7.071c0,3.905-3.166,7.072-7.071,7.072c-3.905,0-7.072-3.166-7.072-7.072
		C296.069,321.902,299.236,318.736,303.141,318.736z M340.625,299.445c8.537,0,15.46,6.923,15.46,15.459
		c0,8.537-6.923,15.459-15.46,15.459c-8.536,0-15.459-6.922-15.459-15.459C325.166,306.369,332.09,299.445,340.625,299.445z
		 M324.835,336.656c3.904,0,7.07,3.166,7.07,7.072c0,3.904-3.166,7.071-7.07,7.071c-3.906,0-7.072-3.166-7.072-7.071
		C317.763,339.822,320.929,336.656,324.835,336.656z M354.073,339.486c3.905,0,7.072,3.167,7.072,7.072
		c0,3.904-3.167,7.071-7.072,7.071c-3.904,0-7.071-3.166-7.071-7.071C347.002,342.653,350.169,339.486,354.073,339.486z
		 M305.508,356.086c16.28,0,29.483,13.203,29.483,29.483c0,16.279-13.203,29.482-29.483,29.482
		c-16.28,0-29.483-13.203-29.483-29.482C276.025,369.289,289.228,356.086,305.508,356.086z M275.316,347.503
		c3.904,0,7.072,3.166,7.072,7.072c0,3.904-3.167,7.071-7.072,7.071c-3.904,0-7.072-3.166-7.072-7.071
		C268.245,350.669,271.412,347.503,275.316,347.503z M248.906,345.144c3.905,0,7.072,3.167,7.072,7.072
		c0,3.904-3.167,7.072-7.072,7.072c-3.904,0-7.071-3.167-7.071-7.072S245.002,345.144,248.906,345.144z M249.379,377.686
		c3.904,0,7.071,3.167,7.071,7.071c0,3.906-3.166,7.072-7.071,7.072c-3.905,0-7.072-3.166-7.072-7.072
		C242.307,380.852,245.473,377.686,249.379,377.686z M261.64,397.964c3.904,0,7.071,3.166,7.071,7.071
		c0,3.905-3.166,7.072-7.071,7.072c-3.905,0-7.072-3.167-7.072-7.072C254.568,401.131,257.735,397.964,261.64,397.964z
		 M246.077,415.414c3.904,0,7.072,3.166,7.072,7.071c0,3.905-3.167,7.072-7.072,7.072c-3.904,0-7.07-3.166-7.07-7.072
		C239.006,418.58,242.173,415.414,246.077,415.414z M279.089,416.828c3.904,0,7.071,3.166,7.071,7.071
		c0,3.905-3.166,7.072-7.071,7.072c-3.905,0-7.072-3.166-7.072-7.072C272.017,419.995,275.184,416.828,279.089,416.828z
		 M334.266,416.828c3.904,0,7.071,3.166,7.071,7.071c0,3.905-3.166,7.072-7.071,7.072c-3.905,0-7.072-3.166-7.072-7.072
		C327.195,419.995,330.361,416.828,334.266,416.828z M377.238,352.118c10.63,0,19.252,8.621,19.252,19.251
		c0,10.63-8.622,19.251-19.252,19.251c-10.63,0-19.251-8.621-19.251-19.251C357.987,360.739,366.608,352.118,377.238,352.118
		L377.238,352.118z M371.522,416.356c3.905,0,7.072,3.167,7.072,7.072c0,3.904-3.167,7.072-7.072,7.072
		c-3.904,0-7.071-3.167-7.071-7.072C364.451,419.524,367.618,416.356,371.522,416.356z M408.835,396.537
		c8.148,0,14.755,6.608,14.755,14.755c0,8.148-6.608,14.755-14.755,14.755c-8.147,0-14.755-6.607-14.755-14.755
		S400.687,396.537,408.835,396.537z M414.498,373.454c3.905,0,7.072,3.166,7.072,7.071c0,3.905-3.167,7.072-7.072,7.072
		c-3.904,0-7.071-3.167-7.071-7.072C407.427,376.62,410.594,373.454,414.498,373.454z M434.082,357.359
		c3.905,0,7.072,3.167,7.072,7.072c0,3.904-3.166,7.072-7.072,7.072c-3.904,0-7.071-3.167-7.071-7.072
		C427.011,360.526,430.177,357.359,434.082,357.359z M439.746,379.843c3.904,0,7.071,3.167,7.071,7.072
		c0,3.904-3.166,7.072-7.071,7.072c-3.905,0-7.072-3.167-7.072-7.072C432.674,383.01,435.84,379.843,439.746,379.843z
		 M437.622,417.946c3.904,0,7.071,3.167,7.071,7.072c0,3.904-3.166,7.072-7.071,7.072c-3.905,0-7.072-3.167-7.072-7.072
		C430.55,421.114,433.717,417.946,437.622,417.946z M467.116,393.224c8.147,0,14.754,6.607,14.754,14.754
		c0,8.147-6.608,14.755-14.754,14.755c-8.148,0-14.755-6.608-14.755-14.755C452.361,399.831,458.968,393.224,467.116,393.224z
		 M502.745,407.297c3.904,0,7.071,3.166,7.071,7.072c0,3.904-3.166,7.071-7.071,7.071c-3.905,0-7.072-3.166-7.072-7.071
		C495.674,410.464,498.84,407.297,502.745,407.297z M501.565,381.973c3.904,0,7.072,3.167,7.072,7.071
		c0,3.905-3.167,7.072-7.072,7.072s-7.072-3.167-7.072-7.072C494.494,385.14,497.661,381.973,501.565,381.973z M481.415,318.212
		c16.1,0,29.157,13.057,29.157,29.157c0,16.101-13.058,29.157-29.157,29.157c-16.1,0-29.158-13.056-29.158-29.157
		C452.257,331.27,465.314,318.212,481.415,318.212L481.415,318.212z M523.037,394.516c3.904,0,7.071,3.167,7.071,7.072
		c0,3.904-3.166,7.072-7.071,7.072s-7.072-3.167-7.072-7.072C515.966,397.684,519.133,394.516,523.037,394.516z M540.497,367.427
		c8.148,0,14.755,6.608,14.755,14.755c0,8.146-6.607,14.754-14.755,14.754c-8.147,0-14.754-6.608-14.754-14.754
		C525.743,374.034,532.351,367.427,540.497,367.427z M541.913,339.372c3.904,0,7.072,3.166,7.072,7.071
		c0,3.905-3.167,7.072-7.072,7.072c-3.904,0-7.071-3.166-7.071-7.072C534.842,342.539,538.009,339.372,541.913,339.372z
		 M562.205,354.756c3.905,0,7.072,3.167,7.072,7.071c0,3.906-3.167,7.072-7.072,7.072c-3.904,0-7.071-3.166-7.071-7.072
		C555.134,357.923,558.3,354.756,562.205,354.756z M573.037,315.079c8.148,0,14.755,6.607,14.755,14.755
		c0,8.147-6.608,14.754-14.755,14.754c-8.146,0-14.754-6.607-14.754-14.754C558.283,321.686,564.891,315.079,573.037,315.079z
		 M526.341,292.577c9.487,0,17.181,7.694,17.181,17.182c0,9.488-7.694,17.182-17.181,17.182c-9.487,0-17.182-7.694-17.182-17.182
		C509.159,300.272,516.854,292.577,526.341,292.577z M567.397,291.092c3.904,0,7.071,3.167,7.071,7.072
		c0,3.904-3.166,7.072-7.071,7.072c-3.905,0-7.072-3.167-7.072-7.072C560.325,294.259,563.491,291.092,567.397,291.092z
		 M549.228,268.845c3.904,0,7.071,3.166,7.071,7.071c0,3.905-3.166,7.072-7.071,7.072c-3.905,0-7.072-3.166-7.072-7.072
		C542.157,272.011,545.323,268.845,549.228,268.845z M588.129,261.317c8.147,0,14.754,6.608,14.754,14.755
		c0,8.147-6.607,14.755-14.754,14.755c-8.147,0-14.755-6.608-14.755-14.755C573.375,267.924,579.982,261.317,588.129,261.317z
		 M566.764,192.1c16.28,0,29.483,13.203,29.483,29.483s-13.203,29.483-29.483,29.483c-16.279,0-29.482-13.203-29.482-29.483
		S550.485,192.1,566.764,192.1z M507.228,251.931c8.147,0,14.754,6.608,14.754,14.754c0,8.148-6.608,14.755-14.754,14.755
		c-8.148,0-14.755-6.607-14.755-14.755C492.473,258.538,499.081,251.931,507.228,251.931z M527.757,239.97
		c3.904,0,7.071,3.167,7.071,7.072c0,3.904-3.166,7.072-7.071,7.072c-3.904,0-7.072-3.167-7.072-7.072
		C520.685,243.138,523.852,239.97,527.757,239.97z M498.734,223.876c3.904,0,7.072,3.167,7.072,7.072
		c0,3.904-3.167,7.071-7.072,7.071c-3.904,0-7.072-3.166-7.072-7.071C491.662,227.043,494.83,223.876,498.734,223.876z
		 M508.997,168.588c10.649,0,19.286,8.637,19.286,19.286c0,10.649-8.637,19.285-19.286,19.285c-10.649,0-19.286-8.636-19.286-19.285
		C489.711,177.225,498.348,168.588,508.997,168.588L508.997,168.588z M541.913,163.762c3.904,0,7.072,3.167,7.072,7.072
		c0,3.904-3.167,7.072-7.072,7.072c-3.904,0-7.071-3.167-7.071-7.072C534.842,166.93,538.009,163.762,541.913,163.762z
		 M528.936,132.759c3.904,0,7.071,3.166,7.071,7.071c0,3.905-3.166,7.072-7.071,7.072c-3.905,0-7.072-3.166-7.072-7.072
		C521.864,135.926,525.03,132.759,528.936,132.759z M566.924,114.872c8.293,0,15.018,6.726,15.018,15.018
		c0,8.293-6.725,15.018-15.018,15.018c-8.292,0-15.018-6.725-15.018-15.018C551.907,121.598,558.632,114.872,566.924,114.872z
		 M578.251,155.243c3.904,0,7.071,3.166,7.071,7.071c0,3.904-3.166,7.072-7.071,7.072c-3.905,0-7.072-3.167-7.072-7.072
		C571.18,158.409,574.346,155.243,578.251,155.243z M541.206,99.862c3.904,0,7.071,3.167,7.071,7.071
		c0,3.905-3.167,7.072-7.071,7.072c-3.906,0-7.072-3.167-7.072-7.072C534.135,103.029,537.301,99.862,541.206,99.862z
		 M523.745,59.255c8.293,0,15.018,6.725,15.018,15.018c0,8.292-6.725,15.018-15.018,15.018c-8.292,0-15.018-6.726-15.018-15.018
		C508.727,65.98,515.453,59.255,523.745,59.255z M480.934,93.065c16.279,0,29.482,13.203,29.482,29.483
		c0,16.279-13.203,29.482-29.482,29.482c-16.28,0-29.483-13.203-29.483-29.482C451.451,106.268,464.654,93.065,480.934,93.065z
		 M479.386,44.021c7.686,0,13.921,6.235,13.921,13.921s-6.235,13.921-13.921,13.921c-7.687,0-13.921-6.235-13.921-13.921
		S471.698,44.021,479.386,44.021z M454.374,78.324c3.904,0,7.071,3.167,7.071,7.072c0,3.904-3.166,7.072-7.071,7.072
		c-3.905,0-7.072-3.167-7.072-7.072C447.303,81.492,450.469,78.324,454.374,78.324z M432.43,53.962
		c7.687,0,13.921,6.235,13.921,13.921c0,7.687-6.234,13.921-13.921,13.921c-7.686,0-13.921-6.234-13.921-13.921
		C418.509,60.196,424.744,53.962,432.43,53.962z M446.351,35.013c3.905,0,7.072,3.167,7.072,7.072c0,3.904-3.166,7.071-7.072,7.071
		c-3.904,0-7.071-3.166-7.071-7.071C439.28,38.18,442.447,35.013,446.351,35.013z M399.869,36.197c3.904,0,7.072,3.167,7.072,7.072
		c0,3.904-3.167,7.072-7.072,7.072c-3.904,0-7.072-3.167-7.072-7.072C392.797,39.364,395.965,36.197,399.869,36.197z
		 M394.914,76.743c10.397,0,18.83,8.432,18.83,18.83c0,10.398-8.432,18.831-18.83,18.831c-10.398,0-18.831-8.433-18.831-18.831
		C376.083,85.175,384.516,76.743,394.914,76.743z M366.362,43.122c7.531,0,13.637,6.107,13.637,13.637s-6.106,13.637-13.637,13.637
		c-7.53,0-13.636-6.107-13.636-13.637C352.726,49.229,358.832,43.122,366.362,43.122z M345.599,73.591
		c3.904,0,7.072,3.167,7.072,7.072c0,3.904-3.167,7.072-7.072,7.072c-3.904,0-7.072-3.167-7.072-7.072
		C338.528,76.758,341.695,73.591,345.599,73.591z M317.876,79.982c3.904,0,7.071,3.166,7.071,7.071c0,3.905-3.167,7.072-7.071,7.072
		c-3.904,0-7.072-3.166-7.072-7.072C310.804,83.148,313.972,79.982,317.876,79.982z M310.914,38.625
		c7.531,0,13.637,6.107,13.637,13.637s-6.106,13.637-13.637,13.637c-7.53,0-13.636-6.107-13.636-13.637
		C297.277,44.732,303.384,38.625,310.914,38.625z"/>
</g>
<g id="Layer_x0020_4">
	<path fill="#191919" d="M286.271,210.351c-0.226-0.3-0.429-0.619-0.606-0.952l-15.983,12.03c0.247,0.283,0.483,0.573,0.71,0.873
		c0.226,0.3,0.44,0.607,0.645,0.923l15.983-12.03C286.748,210.934,286.499,210.652,286.271,210.351z M331.979,214.468l5.317-12.829
		c-0.357-0.12-0.709-0.253-1.054-0.396c-0.348-0.145-0.69-0.3-1.025-0.467l-5.317,12.83c0.352,0.13,0.702,0.268,1.047,0.411
		C331.295,214.162,331.638,214.312,331.979,214.468L331.979,214.468z M327.26,192.116c-0.137-0.348-0.264-0.702-0.378-1.061
		l-28.883,11.427c0.192,0.322,0.36,0.661,0.499,1.013c0.137,0.348,0.248,0.708,0.33,1.08l28.884-11.427
		C327.55,192.81,327.4,192.466,327.26,192.116z M314.771,176.403c-0.083,0.368-0.18,0.731-0.29,1.088
		c-0.11,0.361-0.234,0.716-0.369,1.064l12.424,3.803c0.085-0.367,0.183-0.73,0.292-1.087c0.11-0.361,0.233-0.716,0.366-1.065
		L314.771,176.403L314.771,176.403z M285.613,202.9c0.17-0.337,0.368-0.659,0.589-0.963l-9.488-4.81
		c-0.115,0.362-0.26,0.711-0.429,1.045c-0.171,0.337-0.369,0.659-0.59,0.962l9.488,4.81
		C285.299,203.583,285.443,203.234,285.613,202.9z M276.269,191.743l11.939-8.782c-0.244-0.285-0.477-0.579-0.701-0.881
		c-0.221-0.302-0.433-0.613-0.634-0.93l-11.94,8.782c0.269,0.264,0.516,0.548,0.74,0.852
		C275.896,191.087,276.096,191.407,276.269,191.743z M284.891,169.695c0.081-0.368,0.175-0.732,0.283-1.09l-14.772-3.275
		c-0.05,0.375-0.115,0.745-0.196,1.11c-0.081,0.368-0.179,0.731-0.29,1.088l14.772,3.275
		C284.743,170.429,284.81,170.06,284.891,169.695L284.891,169.695z M266.421,136.087c-0.357-0.12-0.709-0.248-1.059-0.381
		l-5.019,14.834c0.366,0.09,0.727,0.196,1.081,0.316c0.357,0.121,0.708,0.257,1.051,0.406l5.019-14.835
		C267.133,136.321,266.775,136.207,266.421,136.087z M297.737,127.689c-0.248,0.282-0.5,0.558-0.759,0.831l19.63,17.251
		c0.201-0.32,0.427-0.622,0.676-0.905c0.249-0.283,0.52-0.545,0.81-0.786l-19.63-17.251
		C298.227,127.121,297.985,127.407,297.737,127.689z M331.12,134.61c-0.326-0.188-0.645-0.386-0.954-0.597l-5.083,8.899
		c0.355,0.134,0.696,0.295,1.022,0.481c0.328,0.187,0.639,0.401,0.931,0.637l5.083-8.899
		C331.777,134.97,331.445,134.796,331.12,134.61L331.12,134.61z M320.485,93.627l9.452,15.859c0.307-0.217,0.622-0.421,0.944-0.614
		c0.322-0.192,0.651-0.373,0.988-0.54l-9.452-15.859c-0.289,0.242-0.596,0.461-0.92,0.655
		C321.175,93.32,320.837,93.487,320.485,93.627L320.485,93.627z M317.61,79.987l-2.925-14.616c-0.359,0.103-0.724,0.191-1.094,0.266
		c-0.366,0.072-0.737,0.13-1.113,0.173l2.925,14.616c0.35-0.13,0.712-0.234,1.086-0.309
		C316.853,80.045,317.228,80.001,317.61,79.987z M260.704,62.411c-0.355,0.116-0.717,0.219-1.084,0.306l5.996,18.281
		c0.351-0.13,0.706-0.255,1.063-0.371c0.356-0.117,0.714-0.227,1.076-0.33l-5.996-18.281
		C261.414,62.161,261.062,62.294,260.704,62.411z M344.396,87.632c-0.376-0.065-0.741-0.159-1.094-0.28l-3.369,19.488
		c0.376,0.035,0.749,0.085,1.116,0.149c0.372,0.063,0.74,0.141,1.102,0.232l3.369-19.487
		C345.137,87.729,344.761,87.694,344.396,87.632z M357.421,67.053c-0.284-0.246-0.556-0.504-0.819-0.773l-7.273,8.373
		c0.321,0.2,0.625,0.424,0.909,0.671s0.548,0.516,0.79,0.805l7.273-8.372C357.998,67.535,357.704,67.3,357.421,67.053z
		 M374.444,67.744c-0.302,0.223-0.613,0.433-0.933,0.631l9.36,12.724c0.288-0.24,0.583-0.471,0.885-0.695
		c0.302-0.222,0.611-0.436,0.926-0.641l-9.36-12.724C375.04,67.286,374.747,67.522,374.444,67.744z M397.807,76.963l2.525-26.639
		c-0.153,0.01-0.307,0.015-0.462,0.015c-0.224,0-0.447-0.011-0.667-0.031c-0.38-0.036-0.752-0.101-1.112-0.196l-2.524,26.641
		c0.377,0.012,0.752,0.036,1.123,0.071C397.066,76.86,397.438,76.906,397.807,76.963L397.807,76.963z M421.23,76.149
		c-0.223-0.301-0.434-0.613-0.632-0.931l-11.23,8.288c0.241,0.288,0.473,0.583,0.696,0.884c0.224,0.302,0.437,0.609,0.643,0.925
		l11.229-8.288C421.69,76.745,421.454,76.452,421.23,76.149L421.23,76.149z M442.994,48.309c-0.333-0.179-0.65-0.385-0.948-0.615
		l-4.015,7.441c0.345,0.151,0.682,0.317,1.012,0.495c0.331,0.179,0.654,0.371,0.968,0.576l4.015-7.441
		C443.668,48.639,443.323,48.487,442.994,48.309z M448.216,81.92c0.186-0.329,0.397-0.642,0.632-0.934
		c0.236-0.295,0.494-0.571,0.773-0.823l-5.642-4.503c-0.211,0.312-0.433,0.614-0.667,0.907c-0.235,0.294-0.481,0.578-0.738,0.85
		L448.216,81.92z M458.487,91.148c-0.305,0.219-0.629,0.414-0.967,0.583l5.365,7.505c0.296-0.23,0.597-0.454,0.903-0.673
		c0.305-0.219,0.613-0.431,0.926-0.638l-5.364-7.505C459.082,90.685,458.794,90.928,458.487,91.148z M479.719,71.859
		c-0.11,0.003-0.221,0.004-0.333,0.004c-0.267,0-0.53-0.007-0.793-0.022l0.51,21.28c0.373-0.023,0.748-0.039,1.124-0.048
		c0.234-0.005,0.47-0.008,0.706-0.008c0.14,0,0.281,0.001,0.42,0.003l-0.511-21.281C480.473,71.826,480.098,71.85,479.719,71.859
		L479.719,71.859z M501.322,101.253l13.329-15.03c-0.299-0.228-0.589-0.466-0.869-0.716c-0.281-0.249-0.552-0.508-0.814-0.778
		L499.639,99.76c0.29,0.238,0.575,0.481,0.856,0.731C500.776,100.739,501.052,100.994,501.322,101.253z M508.681,132.538
		c-0.128,0.353-0.262,0.704-0.402,1.051l13.706,4.935c0.07-0.374,0.169-0.738,0.296-1.089c0.129-0.357,0.286-0.701,0.467-1.028
		l-13.706-4.935C508.927,131.83,508.807,132.185,508.681,132.538L508.681,132.538z M552.394,133.693
		c-0.094-0.362-0.175-0.728-0.244-1.1l-16.743,4.382c0.151,0.342,0.277,0.698,0.372,1.066c0.094,0.36,0.16,0.731,0.196,1.111
		l16.743-4.38C552.597,134.417,552.489,134.058,552.394,133.693L552.394,133.693z M555.722,119.89c0.25-0.281,0.51-0.55,0.781-0.811
		l-9.339-8.336c-0.203,0.318-0.432,0.619-0.683,0.899c-0.251,0.281-0.524,0.541-0.816,0.779l9.338,8.336
		C555.232,120.459,555.472,120.17,555.722,119.89L555.722,119.89z M539.182,164.31c0.345-0.144,0.703-0.262,1.073-0.352
		l-7.585-18.122c-0.319,0.199-0.654,0.372-1.003,0.52c-0.345,0.144-0.704,0.262-1.073,0.351l7.585,18.122
		C538.499,164.63,538.834,164.456,539.182,164.31z M526.616,180.02l9.615-4.977c-0.223-0.302-0.424-0.622-0.598-0.958
		c-0.173-0.333-0.319-0.68-0.438-1.041l-9.615,4.978c0.192,0.322,0.375,0.65,0.547,0.984
		C526.299,179.339,526.463,179.677,526.616,180.02z M571.366,163.928c-0.085-0.362-0.141-0.735-0.168-1.116l-22.741,5.332
		c0.141,0.346,0.258,0.705,0.344,1.076c0.084,0.362,0.141,0.735,0.169,1.116l22.741-5.332
		C571.567,164.658,571.452,164.299,571.366,163.928z M541.297,206.722c0.19-0.324,0.386-0.645,0.588-0.96l-15.689-9.154
		c-0.17,0.335-0.35,0.665-0.539,0.988c-0.189,0.325-0.389,0.643-0.597,0.954l15.688,9.155
		C540.925,207.373,541.109,207.046,541.297,206.722L541.297,206.722z M557.707,249.648c-0.357-0.115-0.712-0.238-1.064-0.366
		l-6.34,19.643c0.377,0.058,0.744,0.145,1.099,0.26c0.361,0.116,0.709,0.262,1.043,0.432l6.34-19.644
		C558.422,249.871,558.064,249.763,557.707,249.648L557.707,249.648z M522.649,251.931c-0.261-0.272-0.499-0.565-0.714-0.875
		l-4.855,4.646c0.279,0.251,0.55,0.512,0.808,0.783c0.26,0.271,0.509,0.552,0.748,0.842l4.855-4.645
		C523.19,252.454,522.908,252.202,522.649,251.931L522.649,251.931z M500.37,237.829c-0.362,0.085-0.734,0.143-1.116,0.171
		l3.477,14.628c0.356-0.113,0.718-0.215,1.085-0.302c0.363-0.085,0.732-0.158,1.105-0.217l-3.477-14.629
		C501.099,237.625,500.74,237.741,500.37,237.829L500.37,237.829z M542.321,274.397c0.081-0.372,0.193-0.732,0.33-1.08l-20.81-4.573
		c-0.052,0.374-0.118,0.744-0.199,1.109c-0.08,0.368-0.174,0.732-0.283,1.09l20.809,4.573
		C542.189,275.134,542.242,274.76,542.321,274.397z M562.924,292.686c0.291-0.238,0.601-0.452,0.927-0.643l-9.336-11.432
		c-0.251,0.282-0.522,0.543-0.814,0.782c-0.292,0.238-0.602,0.453-0.929,0.643l9.337,11.432
		C562.36,293.186,562.633,292.924,562.924,292.686L562.924,292.686z M573.375,276.013c0.001-0.379,0.017-0.754,0.047-1.125
		l-17.207-0.069c0.056,0.358,0.084,0.724,0.084,1.097c0,0.01,0,0.019,0,0.029c-0.001,0.382-0.033,0.758-0.093,1.124l17.207,0.069
		c-0.025-0.352-0.038-0.708-0.038-1.066C573.375,276.052,573.375,276.032,573.375,276.013L573.375,276.013z M560.59,300.085
		c-0.101-0.358-0.175-0.728-0.219-1.107l-17.832,5.036c0.124,0.353,0.239,0.711,0.341,1.073c0.101,0.36,0.192,0.725,0.27,1.094
		l17.833-5.037C560.825,300.805,560.693,300.451,560.59,300.085L560.59,300.085z M559.48,324.006
		c0.149-0.346,0.311-0.685,0.484-1.017l-17.424-7.491c-0.125,0.355-0.263,0.705-0.41,1.049c-0.149,0.345-0.309,0.685-0.479,1.019
		l17.424,7.49C559.196,324.7,559.332,324.349,559.48,324.006L559.48,324.006z M513.167,320.788
		c-0.242-0.288-0.473-0.583-0.695-0.886l-9.44,7.903c0.252,0.279,0.498,0.562,0.739,0.849c0.241,0.287,0.476,0.579,0.706,0.876
		l9.441-7.903C513.659,321.356,513.408,321.076,513.167,320.788L513.167,320.788z M560.02,336.781
		c-0.177-0.33-0.341-0.668-0.493-1.013l-11.983,6.395c0.228,0.299,0.431,0.617,0.61,0.95c0.176,0.331,0.328,0.676,0.451,1.035
		l11.984-6.395C560.387,337.437,560.197,337.113,560.02,336.781z M567.254,343.411l-3.874,11.441
		c0.376,0.063,0.741,0.155,1.095,0.276c0.359,0.121,0.706,0.271,1.037,0.446l3.874-11.441c-0.366-0.093-0.726-0.2-1.08-0.32
		C567.949,343.692,567.598,343.557,567.254,343.411L567.254,343.411z M540.513,353.375l-0.556,14.061
		c0.179-0.007,0.36-0.01,0.541-0.01c0.196,0,0.391,0.004,0.585,0.011c0.378,0.015,0.752,0.044,1.122,0.086l0.558-14.059
		c-0.278,0.033-0.562,0.05-0.848,0.05c-0.093,0-0.187-0.002-0.28-0.006C541.252,353.495,540.877,353.449,540.513,353.375
		L540.513,353.375z M505.948,363.13l21.3,12.551c0.166-0.338,0.345-0.669,0.535-0.991c0.191-0.324,0.395-0.64,0.609-0.948
		l-21.301-12.55c-0.179,0.33-0.363,0.657-0.554,0.98C506.348,362.496,506.151,362.815,505.948,363.13L505.948,363.13z
		 M493.087,374.095l4.426,9.153c0.308-0.215,0.634-0.407,0.974-0.571c0.337-0.163,0.689-0.301,1.052-0.409l-4.426-9.153
		c-0.33,0.176-0.665,0.346-1.003,0.51C493.773,373.789,493.432,373.945,493.087,374.095L493.087,374.095z M453.978,357.259
		c-0.126-0.352-0.247-0.707-0.361-1.066l-13.347,4.812c0.182,0.327,0.338,0.671,0.467,1.028c0.126,0.351,0.226,0.715,0.296,1.089
		l13.348-4.811C454.239,357.964,454.106,357.613,453.978,357.259z M529.823,392.365l-2.952,3.281
		c0.317,0.204,0.617,0.434,0.896,0.686c0.28,0.253,0.539,0.526,0.776,0.82l2.952-3.281c-0.298-0.23-0.586-0.47-0.865-0.721
		C530.351,392.898,530.081,392.636,529.823,392.365z M495.785,413.12c0.066-0.375,0.163-0.739,0.287-1.092l-14.275-2.56
		c-0.037,0.376-0.089,0.748-0.155,1.116c-0.066,0.371-0.146,0.738-0.24,1.1l14.274,2.56
		C495.682,413.861,495.719,413.486,495.785,413.12L495.785,413.12z M454.339,415.361c-0.188-0.325-0.364-0.657-0.526-0.996
		l-10.708,6.186c0.238,0.292,0.452,0.602,0.642,0.929c0.187,0.325,0.351,0.665,0.485,1.02l10.708-6.186
		C454.728,416.003,454.527,415.685,454.339,415.361z M455.424,398.979c0.228-0.298,0.469-0.586,0.72-0.864l-10.178-7.834
		c-0.181,0.332-0.386,0.649-0.616,0.946c-0.23,0.299-0.484,0.578-0.758,0.837l10.178,7.833
		C454.977,399.583,455.194,399.277,455.424,398.979L455.424,398.979z M434.697,371.475l2.252,8.943
		c0.344-0.148,0.701-0.27,1.07-0.363c0.361-0.09,0.733-0.154,1.113-0.187l-2.252-8.942c-0.344,0.148-0.701,0.27-1.07,0.362
		C435.449,371.38,435.077,371.443,434.697,371.475L434.697,371.475z M428.62,368.921c-0.24-0.291-0.455-0.601-0.646-0.927
		l-8.796,7.229c0.283,0.249,0.545,0.52,0.784,0.812c0.239,0.29,0.455,0.6,0.646,0.926l8.796-7.228
		C429.121,369.483,428.858,369.211,428.62,368.921z M412.128,387.189l-1.735,9.429c0.376,0.04,0.747,0.093,1.114,0.16
		c0.372,0.068,0.738,0.149,1.1,0.245l1.735-9.429c-0.383-0.008-0.758-0.047-1.124-0.113
		C412.844,387.412,412.479,387.313,412.128,387.189z M407.986,377.766l-11.812-2.903c-0.068,0.37-0.146,0.738-0.236,1.101
		c-0.089,0.365-0.189,0.727-0.3,1.085l11.813,2.903c0.03-0.381,0.091-0.753,0.179-1.115
		C407.72,378.468,407.84,378.11,407.986,377.766L407.986,377.766z M375.137,390.507c-0.375-0.041-0.746-0.092-1.115-0.155
		l-2.856,26.013c0.117-0.006,0.237-0.009,0.356-0.009c0.261,0,0.518,0.014,0.772,0.042c0.38,0.041,0.75,0.112,1.109,0.211
		l2.856-26.014C375.883,390.577,375.509,390.547,375.137,390.507z M364.102,357.298c0.274-0.256,0.555-0.504,0.844-0.744
		l-5.286-5.662c-0.23,0.298-0.485,0.577-0.761,0.834c-0.275,0.257-0.57,0.491-0.883,0.702l5.286,5.662
		C363.561,357.818,363.827,357.555,364.102,357.298L364.102,357.298z M323.203,409.153c-0.3,0.224-0.603,0.444-0.912,0.659
		l6.887,9.179c0.261-0.272,0.543-0.522,0.845-0.748c0.3-0.226,0.618-0.428,0.954-0.605l-6.887-9.179
		C323.798,408.696,323.503,408.927,323.203,409.153L323.203,409.153z M288.776,409.846c-0.309-0.213-0.613-0.433-0.914-0.658
		l-5.736,8.323c0.342,0.163,0.668,0.352,0.977,0.565c0.311,0.215,0.604,0.453,0.875,0.714l5.736-8.323
		C289.397,410.266,289.084,410.058,288.776,409.846L288.776,409.846z M250.784,417.207c0.282,0.251,0.542,0.524,0.78,0.816
		l6.269-7.029c-0.318-0.204-0.619-0.432-0.898-0.683c-0.282-0.251-0.543-0.523-0.78-0.815l-6.269,7.029
		C250.203,416.729,250.503,416.957,250.784,417.207L250.784,417.207z M268.48,403.231l10.551-4.681
		c-0.164-0.337-0.324-0.677-0.476-1.02c-0.152-0.343-0.298-0.688-0.437-1.037l-10.552,4.681c0.206,0.314,0.386,0.646,0.54,0.992
		C268.257,402.508,268.383,402.864,268.48,403.231z M276.029,385.142c0.006-0.377,0.018-0.752,0.037-1.125l-19.689-0.285
		c0.048,0.334,0.073,0.676,0.073,1.024c0,0.034,0,0.068-0.001,0.102c-0.005,0.383-0.041,0.758-0.104,1.124l19.689,0.286
		c-0.005-0.232-0.008-0.465-0.008-0.699C276.026,385.427,276.027,385.285,276.029,385.142L276.029,385.142z M268.273,353.946
		c0.033-0.381,0.097-0.753,0.189-1.113l-12.5-1.116c0.011,0.164,0.017,0.331,0.017,0.499c0,0.213-0.009,0.422-0.028,0.629
		c-0.033,0.381-0.097,0.753-0.189,1.113l12.501,1.116c-0.012-0.164-0.018-0.331-0.018-0.499
		C268.245,354.362,268.255,354.152,268.273,353.946z M284.938,364.452c0.268-0.263,0.541-0.52,0.82-0.77l-4.764-4.892
		c-0.224,0.303-0.473,0.587-0.743,0.85c-0.27,0.262-0.56,0.503-0.868,0.721l4.764,4.891
		C284.405,364.98,284.669,364.714,284.938,364.452L284.938,364.452z M304.342,356.11c0.373-0.015,0.748-0.022,1.125-0.023
		l-0.925-23.347c-0.365,0.073-0.739,0.118-1.121,0.133c-0.093,0.003-0.187,0.005-0.28,0.005c-0.288,0-0.571-0.017-0.848-0.05
		l0.925,23.346C303.591,356.146,303.966,356.124,304.342,356.11L304.342,356.11z M317.873,358.798
		c0.341,0.158,0.679,0.322,1.013,0.492l4.042-8.751c-0.366-0.102-0.72-0.234-1.059-0.39c-0.344-0.159-0.673-0.345-0.984-0.554
		l-4.042,8.751C317.191,358.49,317.534,358.64,317.873,358.798L317.873,358.798z M328.233,337.526
		c0.331,0.181,0.647,0.39,0.943,0.621l5.027-9.176c-0.342-0.156-0.678-0.325-1.006-0.505c-0.33-0.181-0.652-0.374-0.966-0.577
		l-5.028,9.176C327.56,337.19,327.905,337.345,328.233,337.526L328.233,337.526z M351.308,340.047
		c0.344-0.147,0.702-0.266,1.071-0.357l-4.687-11.032c-0.333,0.172-0.673,0.331-1.018,0.478c-0.345,0.147-0.696,0.281-1.052,0.403
		l4.687,11.032C350.625,340.371,350.959,340.195,351.308,340.047z M309.932,323.831c0.104,0.358,0.181,0.728,0.226,1.106
		l15.974-4.645c-0.13-0.35-0.249-0.707-0.354-1.069c-0.104-0.359-0.196-0.723-0.274-1.092l-15.973,4.645
		C309.692,323.114,309.827,323.467,309.932,323.831z M296.477,323.437c0.127-0.358,0.281-0.702,0.462-1.03l-11.583-4.119
		c-0.106,0.361-0.223,0.718-0.348,1.071c-0.126,0.354-0.262,0.704-0.407,1.049l11.584,4.12
		C296.253,324.153,296.351,323.789,296.477,323.437z M328.438,305.394c0.232-0.296,0.473-0.583,0.725-0.861l-8.04-6.275
		c-0.183,0.331-0.391,0.646-0.623,0.942c-0.232,0.297-0.487,0.575-0.763,0.831l8.04,6.275
		C327.987,305.994,328.208,305.69,328.438,305.394L328.438,305.394z M279.47,297.436l3.63-4.495
		c-0.328-0.187-0.64-0.401-0.931-0.638c-0.293-0.236-0.568-0.496-0.819-0.777l-3.629,4.495c0.304,0.22,0.603,0.447,0.894,0.683
		C278.906,296.941,279.191,297.185,279.47,297.436z M290.764,281.079c0.305,0.222,0.592,0.467,0.857,0.735l11.643-16.047
		c-0.312-0.208-0.619-0.424-0.922-0.645c-0.304-0.221-0.603-0.447-0.897-0.679L289.8,280.49
		C290.138,280.661,290.46,280.858,290.764,281.079z M315.547,287.806c0.381,0.033,0.753,0.096,1.114,0.187l1.525-17.286
		c-0.376-0.018-0.75-0.044-1.122-0.076c-0.376-0.033-0.749-0.072-1.12-0.119l-1.525,17.285c0.167-0.011,0.336-0.017,0.506-0.017
		C315.135,287.779,315.343,287.788,315.547,287.806L315.547,287.806z M280.36,283.493l-26.533-9.003
		c-0.063,0.375-0.155,0.741-0.276,1.094c-0.121,0.36-0.272,0.706-0.447,1.037l26.533,9.004c0.063-0.376,0.155-0.742,0.276-1.095
		C280.034,284.17,280.185,283.824,280.36,283.493z M253.282,270.362c0.156,0.34,0.287,0.694,0.388,1.06l15.151-6.953
		c-0.209-0.312-0.394-0.641-0.552-0.984c-0.156-0.34-0.287-0.695-0.388-1.061l-15.151,6.955
		C252.939,269.689,253.123,270.018,253.282,270.362z M271.168,254.403c0.325-0.187,0.666-0.35,1.02-0.484l-5.481-9.522
		c-0.31,0.21-0.628,0.41-0.954,0.598c-0.325,0.187-0.656,0.363-0.996,0.526l5.481,9.522
		C270.53,254.806,270.841,254.592,271.168,254.403L271.168,254.403z"/>
</g>
</svg>
